<svg id="Capa_1" data-name="Capa 1" xmlns="http://www.w3.org/2000/svg" viewBox="0 0 24 24"><g id="Bootstrap"><path d="M23,21.4a2.51,2.51,0,0,0-1.73-.55H17v4.37h4.34A2.44,2.44,0,0,0,23,24.64,2.19,2.19,0,0,0,23.66,23,2.1,2.1,0,0,0,23,21.4Zm-.6-2.82a1.78,1.78,0,0,0,.6-1.44,1.84,1.84,0,0,0-.53-1.49A2.35,2.35,0,0,0,21,15.22H17v3.86h4a2.23,2.23,0,0,0,1.44-.5ZM28,8H12a4,4,0,0,0-4,4V28a4,4,0,0,0,4,4H28a4,4,0,0,0,4-4V12A4,4,0,0,0,28,8ZM25.81,24.85a3,3,0,0,1-.92,1.24,4.47,4.47,0,0,1-1.61.82,7.66,7.66,0,0,1-2.33.31H14.52v-14h6.8a4.86,4.86,0,0,1,3,.86,3.06,3.06,0,0,1,1.14,2.61A3,3,0,0,1,25,18.5a3.4,3.4,0,0,1-1.48,1.17h0a3,3,0,0,1,2,1.22,4.09,4.09,0,0,1,.67,2.38A3.75,3.75,0,0,1,25.81,24.85Z" transform="translate(-8 -8)" fill="#fff"/></g></svg>