<svg id="js" xmlns="http://www.w3.org/2000/svg" viewBox="0 0 14 14"><defs><style>.cls-1{fill:#fff;}</style></defs><path class="cls-1" d="M11.5,9.5A1.5,1.5,0,0,1,13,8h1.5a.5.5,0,0,1,0,1H13a.5.5,0,0,0-.5.5v1a.5.5,0,0,0,.5.5h.5A1.5,1.5,0,0,1,15,12.5v1A1.5,1.5,0,0,1,13.5,15H12a.5.5,0,0,1,0-1h1.5a.5.5,0,0,0,.5-.5v-1a.5.5,0,0,0-.5-.5H13a1.5,1.5,0,0,1-1.5-1.5Z" transform="translate(-3 -3)"/><path class="cls-1" d="M11,8.5a.5.5,0,0,0-1,0v5a.5.5,0,0,1-.5.5h-1a.5.5,0,0,0,0,1h1A1.5,1.5,0,0,0,11,13.5Z" transform="translate(-3 -3)"/><path class="cls-1" d="M3,6v8a3,3,0,0,0,3,3h8a3,3,0,0,0,3-3V6a3,3,0,0,0-3-3H6A3,3,0,0,0,3,6ZM6,4h8a2,2,0,0,1,2,2v8a2,2,0,0,1-2,2H6a2,2,0,0,1-2-2V6A2,2,0,0,1,6,4Z" transform="translate(-3 -3)"/></svg>